<mxfile host="app.diagrams.net" agent="Mozilla/5.0 (X11; Ubuntu; Linux x86_64; rv:134.0) Gecko/20100101 Firefox/134.0" version="26.0.10">
  <diagram name="Page-1" id="2YBvvXClWsGukQMizWep">
    <mxGraphModel dx="1604" dy="795" grid="1" gridSize="10" guides="1" tooltips="1" connect="1" arrows="1" fold="1" page="1" pageScale="1" pageWidth="850" pageHeight="1100" math="0" shadow="0">
      <root>
        <mxCell id="0" />
        <mxCell id="1" parent="0" />
        <mxCell id="ibg8gqGGqogeolhN7QID-3" value="" style="edgeStyle=orthogonalEdgeStyle;rounded=0;orthogonalLoop=1;jettySize=auto;html=1;" edge="1" parent="1" source="ibg8gqGGqogeolhN7QID-1" target="ibg8gqGGqogeolhN7QID-2">
          <mxGeometry relative="1" as="geometry" />
        </mxCell>
        <mxCell id="ibg8gqGGqogeolhN7QID-1" value="INIZIO" style="ellipse;whiteSpace=wrap;html=1;" vertex="1" parent="1">
          <mxGeometry x="320" y="10" width="120" height="80" as="geometry" />
        </mxCell>
        <mxCell id="ibg8gqGGqogeolhN7QID-5" value="" style="edgeStyle=orthogonalEdgeStyle;rounded=0;orthogonalLoop=1;jettySize=auto;html=1;" edge="1" parent="1" source="ibg8gqGGqogeolhN7QID-2" target="ibg8gqGGqogeolhN7QID-4">
          <mxGeometry relative="1" as="geometry" />
        </mxCell>
        <mxCell id="ibg8gqGGqogeolhN7QID-2" value="&lt;div&gt;x , y ,z&lt;/div&gt;&lt;div&gt;somma = x+y+z&lt;br&gt;&lt;/div&gt;" style="whiteSpace=wrap;html=1;" vertex="1" parent="1">
          <mxGeometry x="320" y="180" width="120" height="60" as="geometry" />
        </mxCell>
        <mxCell id="ibg8gqGGqogeolhN7QID-7" value="" style="edgeStyle=orthogonalEdgeStyle;rounded=0;orthogonalLoop=1;jettySize=auto;html=1;" edge="1" parent="1" source="ibg8gqGGqogeolhN7QID-4" target="ibg8gqGGqogeolhN7QID-6">
          <mxGeometry relative="1" as="geometry" />
        </mxCell>
        <mxCell id="ibg8gqGGqogeolhN7QID-8" value="TRUE" style="edgeLabel;html=1;align=center;verticalAlign=middle;resizable=0;points=[];" vertex="1" connectable="0" parent="ibg8gqGGqogeolhN7QID-7">
          <mxGeometry x="-0.1" y="2" relative="1" as="geometry">
            <mxPoint as="offset" />
          </mxGeometry>
        </mxCell>
        <mxCell id="ibg8gqGGqogeolhN7QID-12" value="" style="edgeStyle=orthogonalEdgeStyle;rounded=0;orthogonalLoop=1;jettySize=auto;html=1;" edge="1" parent="1" source="ibg8gqGGqogeolhN7QID-4" target="ibg8gqGGqogeolhN7QID-11">
          <mxGeometry relative="1" as="geometry" />
        </mxCell>
        <mxCell id="ibg8gqGGqogeolhN7QID-14" value="FALSE" style="edgeLabel;html=1;align=center;verticalAlign=middle;resizable=0;points=[];" vertex="1" connectable="0" parent="ibg8gqGGqogeolhN7QID-12">
          <mxGeometry x="-0.4551" y="-3" relative="1" as="geometry">
            <mxPoint as="offset" />
          </mxGeometry>
        </mxCell>
        <mxCell id="ibg8gqGGqogeolhN7QID-4" value="somma %2 ==0" style="rhombus;whiteSpace=wrap;html=1;" vertex="1" parent="1">
          <mxGeometry x="325" y="280" width="110" height="100" as="geometry" />
        </mxCell>
        <mxCell id="ibg8gqGGqogeolhN7QID-10" value="" style="edgeStyle=orthogonalEdgeStyle;rounded=0;orthogonalLoop=1;jettySize=auto;html=1;" edge="1" parent="1" source="ibg8gqGGqogeolhN7QID-6" target="ibg8gqGGqogeolhN7QID-9">
          <mxGeometry relative="1" as="geometry" />
        </mxCell>
        <mxCell id="ibg8gqGGqogeolhN7QID-16" value="TRUE" style="edgeLabel;html=1;align=center;verticalAlign=middle;resizable=0;points=[];" vertex="1" connectable="0" parent="ibg8gqGGqogeolhN7QID-10">
          <mxGeometry x="-0.3524" y="-1" relative="1" as="geometry">
            <mxPoint as="offset" />
          </mxGeometry>
        </mxCell>
        <mxCell id="ibg8gqGGqogeolhN7QID-13" style="edgeStyle=orthogonalEdgeStyle;rounded=0;orthogonalLoop=1;jettySize=auto;html=1;exitX=0;exitY=0.5;exitDx=0;exitDy=0;entryX=1;entryY=0.75;entryDx=0;entryDy=0;" edge="1" parent="1" source="ibg8gqGGqogeolhN7QID-6" target="ibg8gqGGqogeolhN7QID-11">
          <mxGeometry relative="1" as="geometry" />
        </mxCell>
        <mxCell id="ibg8gqGGqogeolhN7QID-15" value="FALSE" style="edgeLabel;html=1;align=center;verticalAlign=middle;resizable=0;points=[];" vertex="1" connectable="0" parent="ibg8gqGGqogeolhN7QID-13">
          <mxGeometry x="-0.071" y="3" relative="1" as="geometry">
            <mxPoint as="offset" />
          </mxGeometry>
        </mxCell>
        <mxCell id="ibg8gqGGqogeolhN7QID-6" value="&lt;div&gt;x%3==0&lt;/div&gt;&lt;div&gt;and&lt;/div&gt;&lt;div&gt;y%5==0&lt;/div&gt;&lt;div&gt;and&lt;/div&gt;&lt;div&gt;z%7==0&lt;br&gt;&lt;/div&gt;" style="rhombus;whiteSpace=wrap;html=1;" vertex="1" parent="1">
          <mxGeometry x="315" y="440" width="130" height="110" as="geometry" />
        </mxCell>
        <mxCell id="ibg8gqGGqogeolhN7QID-20" style="edgeStyle=orthogonalEdgeStyle;rounded=0;orthogonalLoop=1;jettySize=auto;html=1;exitX=0;exitY=0.5;exitDx=0;exitDy=0;entryX=1;entryY=0.5;entryDx=0;entryDy=0;" edge="1" parent="1" source="ibg8gqGGqogeolhN7QID-9" target="ibg8gqGGqogeolhN7QID-17">
          <mxGeometry relative="1" as="geometry" />
        </mxCell>
        <mxCell id="ibg8gqGGqogeolhN7QID-9" value="write &quot;regole rispettate&quot;" style="whiteSpace=wrap;html=1;" vertex="1" parent="1">
          <mxGeometry x="320" y="655" width="120" height="60" as="geometry" />
        </mxCell>
        <mxCell id="ibg8gqGGqogeolhN7QID-18" value="" style="edgeStyle=orthogonalEdgeStyle;rounded=0;orthogonalLoop=1;jettySize=auto;html=1;" edge="1" parent="1">
          <mxGeometry relative="1" as="geometry">
            <mxPoint x="88" y="510" as="sourcePoint" />
            <mxPoint x="85.5" y="665" as="targetPoint" />
            <Array as="points">
              <mxPoint x="86" y="510" />
              <mxPoint x="86" y="588" />
            </Array>
          </mxGeometry>
        </mxCell>
        <mxCell id="ibg8gqGGqogeolhN7QID-11" value="write &quot;regole non rispettate&quot;" style="whiteSpace=wrap;html=1;" vertex="1" parent="1">
          <mxGeometry x="40" y="450" width="120" height="60" as="geometry" />
        </mxCell>
        <mxCell id="ibg8gqGGqogeolhN7QID-22" value="" style="edgeStyle=orthogonalEdgeStyle;rounded=0;orthogonalLoop=1;jettySize=auto;html=1;" edge="1" parent="1" source="ibg8gqGGqogeolhN7QID-17" target="ibg8gqGGqogeolhN7QID-21">
          <mxGeometry relative="1" as="geometry" />
        </mxCell>
        <mxCell id="ibg8gqGGqogeolhN7QID-17" value="" style="ellipse;whiteSpace=wrap;html=1;" vertex="1" parent="1">
          <mxGeometry x="75" y="665" width="25" height="25" as="geometry" />
        </mxCell>
        <mxCell id="ibg8gqGGqogeolhN7QID-21" value="FINE" style="ellipse;whiteSpace=wrap;html=1;" vertex="1" parent="1">
          <mxGeometry x="47.5" y="742.5" width="112.5" height="80" as="geometry" />
        </mxCell>
      </root>
    </mxGraphModel>
  </diagram>
</mxfile>
